<svg width="687px" height="578px" viewBox="-44.122866894197955 3.4948805460750805 600.2457337883959 505.01023890784984" class="css-np3qrs" style="position: absolute; top: 0px; left: 0px; width: 687px; height: 578px;"><style>#editor_f84m3hf4a_1 ._sw1{stroke-width:0.8737201365187713}#editor_f84m3hf4a_1 ._sw2{stroke-width:1.7474402730375427}#editor_f84m3hf4a_1 ._sd{stroke-dasharray:8.737 4.369}</style><defs><pattern id="o_f84m3hf4a_2" x="0" y="0" width="27.959044368600683" height="27.959044368600683" patternUnits="userSpaceOnUse" class="css-1e1xezv"><rect x="0" y="0" width="27.959044368600683" height="27.959044368600683"></rect><circle cx="0" cy="0" r="1.310580204778157"></circle><circle cx="27.959044368600683" cy="0" r="1.310580204778157"></circle><circle cx="27.959044368600683" cy="27.959044368600683" r="1.310580204778157"></circle><circle cx="0" cy="27.959044368600683" r="1.310580204778157"></circle></pattern></defs><rect fill="url(#o_f84m3hf4a_2)" stroke-width="0.8737201365187713" x="0" y="0" width="512" height="512" class="css-f3jo1l"></rect><svg xmlns="http://www.w3.org/2000/svg" width="512" height="512" viewBox="0 0 512 512" style="overflow: visible;" data-bbox="7.105427357601002e-15 1.4210854715202004e-14 512 512"><rect data-uid="o_f84m3hf4a_4" data-fl-background="" x="0" y="0" width="512" height="512" fill="#000000"></rect><path d="M50 95.646c24.854 0 45-20.147 45-45s-20.146-45-45-45s-45 20.147-45 45S25.146 95.646 50 95.646z M50 6.646  c24.262 0 44 19.738 44 44s-19.738 44-44 44s-44-19.738-44-44S25.738 6.646 50 6.646z" transform="matrix(5.659764884338261, 0, 0, 5.659764884338261, -28.298824421691506, -29.333893199539943)" fill="#e7ff36" data-uid="o_f84m3hf4a_8" stroke="none"></path><path text="GymWeb" fill="#ffffff" space="preserve" text-anchor="middle" offset="0.5" font-scale="contain" font-size="48" font-family="Exo" transform="matrix(1.0085688593027233, 0, 0, 1.0085688593027233, 255.90418472720307, 375.14364571342367)" data-fl-textpath="" font-style="normal" font-weight="700" data-uid="o_f84m3hf4a_5" d="M-88.106 0.24L-88.106 0.24Q-91.466 0.24 -93.596-1.03Q-95.736-2.3 -96.936-4.68Q-98.136-7.06 -98.616-10.37Q-99.096-13.68 -99.096-17.76L-99.096-17.76Q-99.096-22.03 -98.546-25.39Q-97.996-28.75 -96.576-31.08Q-95.156-33.41 -92.596-34.63Q-90.026-35.86 -85.996-35.86L-85.996-35.86Q-83.546-35.86 -81.506-35.66Q-79.466-35.47 -77.636-35.11Q-75.816-34.75 -73.996-34.27L-73.996-34.27L-73.996-28.8Q-74.996-28.94 -76.676-29.09Q-78.356-29.23 -80.426-29.35Q-82.486-29.47 -84.696-29.47L-84.696-29.47Q-87.716-29.47 -89.276-28.39Q-90.836-27.31 -91.416-24.74Q-91.996-22.18 -91.996-17.71L-91.996-17.71Q-91.996-14.26 -91.676-12.05Q-91.366-9.84 -90.646-8.57Q-89.926-7.3 -88.756-6.79Q-87.576-6.29 -85.846-6.29L-85.846-6.29Q-83.876-6.29 -82.076-6.62Q-80.276-6.96 -79.176-7.3L-79.176-7.3L-79.176-14.21L-85.556-14.21L-85.556-19.82Q-84.556-19.97 -83.156-20.06Q-81.766-20.16 -80.256-20.23Q-78.746-20.3 -77.356-20.3L-77.356-20.3Q-75.816-20.3 -74.596-20.28Q-73.366-20.26 -72.356-20.16L-72.356-20.16L-72.356 0L-77.686 0L-78.646-2.4Q-80.036-1.58 -82.586-0.67Q-85.126 0.24 -88.106 0.24ZM-53.548 11.38L-59.448 11.38L-56.668 0Q-58.828 0 -60.458-0.82Q-62.088-1.63 -63.168-3.14Q-64.248-4.66 -64.828-6.91L-64.828-6.91L-69.668-25.78L-62.278-25.78L-58.198-8.35Q-57.958-7.44 -57.578-6.91Q-57.188-6.38 -56.758-6.17Q-56.328-5.95 -55.968-5.88Q-55.608-5.81 -55.418-5.81L-55.418-5.81L-50.758-25.78L-43.558-25.78L-51.238 6.62L-53.548 11.38ZM-33.096 0L-40.196 0L-40.196-25.78L-34.346-25.78L-33.096-23.14Q-31.416-24.38 -29.426-25.3Q-27.436-26.21 -24.506-26.21L-24.506-26.21Q-22.056-26.21 -20.446-25.2Q-18.836-24.19 -18.026-22.56L-18.026-22.56Q-16.916-23.42 -15.456-24.24Q-13.996-25.06 -12.316-25.63Q-10.636-26.21 -8.996-26.21L-8.996-26.21Q-5.876-26.21 -4.076-25.03Q-2.276-23.86 -1.556-21.72Q-0.836-19.58 -0.836-16.7L-0.836-16.7L-0.836 0L-7.946 0L-7.946-16.08Q-7.946-17.33 -8.396-18.14Q-8.856-18.96 -9.676-19.39Q-10.486-19.82 -11.636-19.82L-11.636-19.82Q-13.076-19.82 -14.546-19.22Q-16.006-18.62 -17.156-17.81L-17.156-17.81Q-17.066-17.33 -17.016-16.87Q-16.966-16.42 -16.966-15.94L-16.966-15.94L-16.966 0L-24.076 0L-24.076-16.08Q-24.076-17.33 -24.526-18.14Q-24.986-18.96 -25.796-19.39Q-26.616-19.82 -27.766-19.82L-27.766-19.82Q-28.776-19.82 -29.716-19.58Q-30.646-19.34 -31.486-18.91Q-32.326-18.48 -33.096-17.9L-33.096-17.9L-33.096 0ZM 18.312 0L 11.062 0L 2.572-35.52L 9.912-35.52L 15.622-10.46L 22.292-35.52L 28.822-35.52L 35.452-10.46L 41.162-35.52L 48.502-35.52L 40.012 0L 32.762 0L 25.562-25.06L 18.312 0ZM 60.98 0.24L 60.98 0.24Q 56.71 0.24  54.17-0.89Q 51.62-2.02  50.5-4.9Q 49.37-7.78  49.37-12.86L 49.37-12.86Q 49.37-18.1  50.42-20.98Q 51.48-23.86  53.98-25.01Q 56.47-26.16  60.74-26.16L 60.74-26.16Q 64.58-26.16  66.89-25.39Q 69.19-24.62  70.22-22.7Q 71.26-20.78  71.26-17.28L 71.26-17.28Q 71.26-14.69  70.22-13.18Q 69.19-11.66  67.32-11.02Q 65.45-10.37  62.9-10.37L 62.9-10.37L 56.42-10.37Q 56.52-8.4  57.02-7.22Q 57.53-6.05  58.9-5.54Q 60.26-5.04  62.86-5.04L 62.86-5.04L 70.39-5.04L 70.39-0.86Q 68.52-0.48  66.29-0.12Q 64.06 0.24  60.98 0.24ZM 56.33-14.59L 56.33-14.59L 62.18-14.59Q 63.62-14.59  64.3-15.17Q 64.97-15.74  64.97-17.23L 64.97-17.23Q 64.97-18.62  64.54-19.46Q 64.1-20.3  63.19-20.66Q 62.28-21.02  60.74-21.02L 60.74-21.02Q 59.11-21.02  58.15-20.47Q 57.19-19.92  56.76-18.53Q 56.33-17.14  56.33-14.59ZM 90.506 0.29L 90.506 0.29Q 88.826 0.29  87.476-0.1Q 86.136-0.48  85.056-1.1Q 83.976-1.73  83.016-2.45L 83.016-2.45L 81.866 0L 75.916 0L 75.916-36.62L 83.016-36.62L 83.016-24Q 84.556-24.82  86.476-25.49Q 88.396-26.16  90.166-26.16L 90.166-26.16Q 93.476-26.16  95.476-24.77Q 97.466-23.38  98.376-20.42Q 99.286-17.47  99.286-12.62L 99.286-12.62Q 99.286-8.3  98.356-5.42Q 97.416-2.54  95.476-1.13Q 93.526 0.29  90.506 0.29ZM 87.866-5.52L 87.866-5.52Q 89.116-5.52  90.096-6.17Q 91.076-6.82  91.636-8.45Q 92.186-10.08  92.186-12.96L 92.186-12.96Q 92.186-16.32  91.586-17.88Q 90.986-19.44  89.996-19.94Q 89.016-20.45  87.866-20.45L 87.866-20.45Q 86.426-20.45  85.196-19.99Q 83.976-19.54  83.016-19.01L 83.016-19.01L 83.016-6.77Q 83.926-6.29  85.106-5.9Q 86.276-5.52  87.866-5.52Z"></path><g transform="matrix(0.39102286721771745, 0, 0, 0.39102286721771745, 155.89814207672538, 125.06217989979811)" data-uid="o_f84m3hf4a_57" fill="#ffffff"><path d="M503.058 157.279l-42.338-42.338l31.827-31.815c2.814-2.811 4.396-6.62 4.396-10.604c0-3.984-1.582-7.793-4.395-10.605
			l-42.612-42.612c-5.625-5.625-15.586-5.625-21.211 0L396.91 51.132L354.566 8.786c-11.715-11.715-30.71-11.715-42.426 0
			c-11.717 11.715-11.717 30.71 0 42.426l148.491 148.493c11.717 11.715 30.712 11.715 42.427 0
			C514.773 187.99 514.773 168.995 503.058 157.279z" transform="matrix(1, 0, 0, 1, 0, 0)" data-uid="o_f84m3hf4a_43" fill="#ffffff"></path><path d="M199.86 460.786L51.369 312.293c-11.717-11.715-30.71-11.715-42.427 0c-11.715 11.717-11.715 30.712 0 42.427
			l42.345 42.345l-31.765 31.752c-2.813 2.813-4.395 6.621-4.395 10.605s1.582 7.793 4.395 10.605l42.612 42.598
			c2.929 2.931 6.767 4.396 10.605 4.396s7.676-1.465 10.605-4.395l31.752-31.752l42.338 42.339
			c11.715 11.715 30.71 11.715 42.426 0C211.577 491.496 211.577 472.501 199.86 460.786z" transform="matrix(1, 0, 0, 1, 0, 0)" data-uid="o_f84m3hf4a_46" fill="#ffffff"></path><path transform="matrix(1, 0, 0, 1, 0, 0)" data-type="polygon" d="M269.713 178.492L178.647 269.868L242.287 333.508L333.353 242.13Z" data-uid="o_f84m3hf4a_49" fill="#ffffff"></path><path d="M460.632 242.131L269.713 51.212c-11.715-11.715-30.711-11.715-42.426 0c-11.717 11.717-11.717 30.71 0 42.427
			l190.919 190.919c11.715 11.715 30.71 11.715 42.426 0C472.349 272.843 472.349 253.848 460.632 242.131z" transform="matrix(1, 0, 0, 1, 0, 0)" data-uid="o_f84m3hf4a_52" fill="#ffffff"></path><path d="M284.714 418.36L93.794 227.44c-11.715-11.715-30.71-11.715-42.425 0c-11.717 11.717-11.717 30.712 0 42.427
			l190.919 190.919c11.715 11.715 30.71 11.715 42.426 0C296.431 449.071 296.431 430.076 284.714 418.36z" transform="matrix(1, 0, 0, 1, 0, 0)" data-uid="o_f84m3hf4a_55" fill="#ffffff"></path></g></svg><path d="M-44.122866894197955 3.4948805460750805h600.2457337883959v505.01023890784984h-600.2457337883959z M0 0v512h512v-512z" class="css-1m35ybi"></path><g class="css-0"></g></svg>